<?xml version="1.0" standalone="no"?>
<!DOCTYPE svg PUBLIC "-//W3C//DTD SVG 20010904//EN"
 "http://www.w3.org/TR/2001/REC-SVG-20010904/DTD/svg10.dtd">
<svg version="1.0" xmlns="http://www.w3.org/2000/svg"
 width="171.000000pt" height="171.000000pt" viewBox="0 0 171.000000 171.000000"
 preserveAspectRatio="xMidYMid meet">
<metadata>
Created by potrace 1.14, written by Peter Selinger 2001-2017
</metadata>
<g transform="translate(0.000000,171.000000) scale(0.100000,-0.100000)"
fill="#000000" stroke="none">
<path d="M777 1602 c-40 -54 -100 -140 -133 -190 -32 -50 -62 -91 -67 -92 -4
0 -46 27 -94 60 -47 33 -90 60 -94 60 -21 0 -170 -411 -193 -532 -29 -155 -37
-198 -41 -228 -7 -52 -7 -239 0 -285 23 -152 93 -267 200 -330 108 -64 295
-75 452 -28 46 14 56 14 100 -1 90 -29 236 -37 324 -16 161 37 267 147 310
320 14 59 18 271 6 355 -29 210 -93 437 -185 658 -20 48 -40 87 -45 87 -10 0
-124 -76 -153 -102 -21 -19 -21 -19 -97 94 -82 123 -180 248 -202 261 -11 6
-34 -18 -88 -91z"/>
</g>
</svg>
